<?xml version="1.0" encoding="UTF-8" standalone="no"?>
<!-- Created with Inkscape (http://www.inkscape.org/) -->
<svg
   xmlns:dc="http://purl.org/dc/elements/1.1/"
   xmlns:cc="http://creativecommons.org/ns#"
   xmlns:rdf="http://www.w3.org/1999/02/22-rdf-syntax-ns#"
   xmlns:svg="http://www.w3.org/2000/svg"
   xmlns="http://www.w3.org/2000/svg"
   xmlns:xlink="http://www.w3.org/1999/xlink"
   xmlns:sodipodi="http://sodipodi.sourceforge.net/DTD/sodipodi-0.dtd"
   xmlns:inkscape="http://www.inkscape.org/namespaces/inkscape"
   width="600"
   height="24"
   id="svg20847"
   sodipodi:version="0.32"
   inkscape:version="0.46"
   version="1.0"
   sodipodi:docname="center-titre-bg.svg"
   inkscape:output_extension="org.inkscape.output.svg.inkscape"
   inkscape:export-filename="D:\saboum\web\mes theme free\center-titre-bg.png"
   inkscape:export-xdpi="90"
   inkscape:export-ydpi="90">
  <defs
     id="defs20849">
    <linearGradient
       id="linearGradient3219">
      <stop
         style="stop-color:#000000;stop-opacity:1;"
         offset="0"
         id="stop3221" />
      <stop
         style="stop-color:#ffffff;stop-opacity:1;"
         offset="1"
         id="stop3223" />
    </linearGradient>
    <marker
       inkscape:stockid="Arrow1Lstart"
       orient="auto"
       refY="0"
       refX="0"
       id="Arrow1Lstart"
       style="overflow:visible">
      <path
         id="path5678"
         d="M 0,0 L 5,-5 L -12.5,0 L 5,5 L 0,0 z"
         style="fill-rule:evenodd;stroke:#000000;stroke-width:1pt;marker-start:none"
         transform="matrix(0.8,0,0,0.8,10,0)" />
    </marker>
    <marker
       inkscape:stockid="Tail"
       orient="auto"
       refY="0"
       refX="0"
       id="Tail"
       style="overflow:visible">
      <g
         id="g5714"
         transform="scale(-1.2,-1.2)">
        <path
           id="path5716"
           d="M -3.8048674,-3.9585227 L 0.54352094,0"
           style="fill:none;fill-rule:evenodd;stroke:#000000;stroke-width:0.80000001;stroke-linecap:round;marker-start:none;marker-end:none" />
        <path
           id="path5718"
           d="M -1.2866832,-3.9585227 L 3.0617053,0"
           style="fill:none;fill-rule:evenodd;stroke:#000000;stroke-width:0.80000001;stroke-linecap:round;marker-start:none;marker-end:none" />
        <path
           id="path5720"
           d="M 1.3053582,-3.9585227 L 5.6537466,0"
           style="fill:none;fill-rule:evenodd;stroke:#000000;stroke-width:0.80000001;stroke-linecap:round;marker-start:none;marker-end:none" />
        <path
           id="path5722"
           d="M -3.8048674,4.1775838 L 0.54352094,0.21974226"
           style="fill:none;fill-rule:evenodd;stroke:#000000;stroke-width:0.80000001;stroke-linecap:round;marker-start:none;marker-end:none" />
        <path
           id="path5724"
           d="M -1.2866832,4.1775838 L 3.0617053,0.21974226"
           style="fill:none;fill-rule:evenodd;stroke:#000000;stroke-width:0.80000001;stroke-linecap:round;marker-start:none;marker-end:none" />
        <path
           id="path5726"
           d="M 1.3053582,4.1775838 L 5.6537466,0.21974226"
           style="fill:none;fill-rule:evenodd;stroke:#000000;stroke-width:0.80000001;stroke-linecap:round;marker-start:none;marker-end:none" />
      </g>
    </marker>
    <radialGradient
       inkscape:collect="always"
       xlink:href="#linearGradient3628"
       id="radialGradient4143"
       gradientUnits="userSpaceOnUse"
       gradientTransform="matrix(1,0,0,0.9114416,0,12.98555)"
       cx="501.98438"
       cy="146.63258"
       fx="501.98438"
       fy="146.63258"
       r="9.265625" />
    <radialGradient
       inkscape:collect="always"
       xlink:href="#linearGradient3628"
       id="radialGradient4141"
       gradientUnits="userSpaceOnUse"
       gradientTransform="matrix(-1.1688925,0,0,1.0653772,862.10862,-10.18673)"
       cx="501.98438"
       cy="146.63258"
       fx="501.98438"
       fy="146.63258"
       r="9.265625" />
    <radialGradient
       inkscape:collect="always"
       xlink:href="#linearGradient3628"
       id="radialGradient4139"
       gradientUnits="userSpaceOnUse"
       gradientTransform="matrix(-1.1688925,0,0,1.0653772,861.65442,-4.13033)"
       cx="501.98438"
       cy="146.63258"
       fx="501.98438"
       fy="146.63258"
       r="9.265625" />
    <linearGradient
       inkscape:collect="always"
       id="linearGradient3628">
      <stop
         style="stop-color:#648eff;stop-opacity:1;"
         offset="0"
         id="stop3630" />
      <stop
         style="stop-color:#648eff;stop-opacity:0;"
         offset="1"
         id="stop3632" />
    </linearGradient>
    <radialGradient
       inkscape:collect="always"
       xlink:href="#linearGradient3628"
       id="radialGradient4137"
       gradientUnits="userSpaceOnUse"
       gradientTransform="matrix(1,0,0,0.9114416,0,12.98555)"
       cx="501.98438"
       cy="146.63258"
       fx="501.98438"
       fy="146.63258"
       r="9.265625" />
    <inkscape:perspective
       sodipodi:type="inkscape:persp3d"
       inkscape:vp_x="0 : 526.18109 : 1"
       inkscape:vp_y="0 : 1000 : 0"
       inkscape:vp_z="744.09448 : 526.18109 : 1"
       inkscape:persp3d-origin="372.04724 : 350.78739 : 1"
       id="perspective20855" />
    <inkscape:perspective
       id="perspective20864"
       inkscape:persp3d-origin="372.04724 : 350.78739 : 1"
       inkscape:vp_z="744.09448 : 526.18109 : 1"
       inkscape:vp_y="0 : 1000 : 0"
       inkscape:vp_x="0 : 526.18109 : 1"
       sodipodi:type="inkscape:persp3d" />
    <linearGradient
       inkscape:collect="always"
       xlink:href="#linearGradient3219"
       id="linearGradient3225"
       x1="411.29373"
       y1="9.8546553"
       x2="411.29373"
       y2="-11.468666"
       gradientUnits="userSpaceOnUse" />
  </defs>
  <sodipodi:namedview
     id="base"
     pagecolor="#ffffff"
     bordercolor="#666666"
     borderopacity="1.0"
     inkscape:pageopacity="0.0"
     inkscape:pageshadow="2"
     inkscape:zoom="1.721805"
     inkscape:cx="334.91693"
     inkscape:cy="-4.163185"
     inkscape:document-units="px"
     inkscape:current-layer="layer1"
     showgrid="false"
     inkscape:window-width="1912"
     inkscape:window-height="1131"
     inkscape:window-x="0"
     inkscape:window-y="35"
     showguides="true"
     inkscape:guide-bbox="true" />
  <metadata
     id="metadata20852">
    <rdf:RDF>
      <cc:Work
         rdf:about="">
        <dc:format>image/svg+xml</dc:format>
        <dc:type
           rdf:resource="http://purl.org/dc/dcmitype/StillImage" />
      </cc:Work>
    </rdf:RDF>
  </metadata>
  <g
     inkscape:label="Calque 1"
     inkscape:groupmode="layer"
     id="layer1">
    <rect
       style="opacity:1;fill:url(#linearGradient3225);fill-opacity:1;stroke:none;stroke-width:13.12600040000000100;stroke-linejoin:round;stroke-miterlimit:4;stroke-dasharray:none;stroke-dashoffset:0;stroke-opacity:1"
       id="rect20939"
       width="600"
       height="24.538801"
       x="0"
       y="0" />
    <path
       style="fill:#648eff;fill-opacity:1;stroke:none;stroke-width:13.1260004;stroke-linejoin:round;stroke-miterlimit:4;stroke-dashoffset:0;stroke-opacity:1"
       d="M -0.47908711,20.190747 L 21.406147,20.190747 C 21.406147,20.190747 52.033776,19.796807 65.176616,19.796807 C 87.15292,17.574494 113.02693,22.448546 134.9391,23.386129 C 163.48613,17.08873 174.57532,22.859201 196.48802,23.796807 C 218.27066,22.339432 244.95906,22.745958 266.66118,21.279353 C 288.5703,18.23836 305.92395,22.948117 327.79943,23.796807 C 347.08449,20.682211 364.7931,20.616646 379.78345,21.780069 C 386.35487,22.020765 386.86619,21.796807 393.45513,21.796807 C 400.04407,21.796807 408.76895,20.431443 415.34037,20.190747 C 421.91179,19.950052 437.2256,20.190747 437.2256,20.190747 L 459.11084,21.796807 L 480.99607,20.190747 L 502.88131,20.190747 L 524.76654,21.796807 L 546.65178,20.190747 L 568.53701,20.190747 L 590.42225,20.190747 L 612.30748,20.190747 L 634.19272,20.190747 L 656.07795,20.190747 L 677.96319,20.190747 L 699.84842,20.190747 L 699.84842,24.375057 L -0.47908711,24.375057 L -0.47908711,20.190747 z"
       id="rect21450"
       sodipodi:nodetypes="cccccccczzcccccccccccccccc" />
    <path
       sodipodi:type="star"
       style="opacity:1;fill:#648eff;fill-opacity:1;stroke:none;stroke-width:13.1260004;stroke-linejoin:round;stroke-miterlimit:4;stroke-dasharray:none;stroke-dashoffset:0;stroke-opacity:1"
       id="path21494"
       sodipodi:sides="26"
       sodipodi:cx="125.25892"
       sodipodi:cy="37.606602"
       sodipodi:r1="26.996786"
       sodipodi:r2="23.757172"
       sodipodi:arg1="0.26179939"
       sodipodi:arg2="0.38262987"
       inkscape:flatsided="false"
       inkscape:rounded="2.85"
       inkscape:randomized="0"
       d="M 151.33581,44.593884 C 148.0496,56.858205 152.03867,34.697823 147.29811,46.476614 C 142.55756,58.255405 155.03167,39.509955 148.9059,50.631455 C 142.78013,61.752955 151.95661,41.19116 144.53496,51.493192 C 137.11331,61.795224 153.71102,46.579732 145.10171,55.912069 C 136.4924,65.244406 150.32299,47.476176 140.65156,55.702732 C 130.98013,63.929288 150.73685,53.128023 140.14433,60.128836 C 129.55181,67.129649 147.23273,53.187608 135.87359,58.86059 C 124.51445,64.533573 146.28198,58.774266 134.32186,63.036693 C 122.36174,67.299119 142.86543,57.993529 130.47873,60.783244 C 118.09203,63.57296 140.60534,63.190321 127.97269,64.466645 C 115.34004,65.742969 137.4749,61.614635 124.78052,61.358956 C 112.08613,61.103277 134.03681,66.119543 121.4658,64.335589 C 108.89479,62.551634 131.37443,63.840482 119.11011,60.554267 C 106.84579,57.268052 126.95815,67.391696 115.17936,62.651141 C 103.40057,57.910586 124.91855,64.541711 113.79705,58.415944 C 102.67555,52.290176 119.78073,66.932849 109.4787,59.511196 C 99.176671,52.089543 118.48244,63.67757 109.15011,55.068257 C 99.81777,46.458943 112.92169,64.769666 104.69513,55.098235 C 96.468579,45.426805 112.44017,61.298278 105.43935,50.705762 C 98.43854,40.113245 106.77964,61.027865 101.10666,49.668724 C 95.433677,38.309584 107.14287,57.542113 102.88044,45.581992 C 98.618012,33.62187 101.71154,55.924905 98.921825,43.538207 C 96.132109,31.151509 102.8984,52.627368 101.62208,39.99472 C 100.34576,27.362072 98.011928,49.757352 98.267607,37.062966 C 98.523286,24.368581 99.953456,46.83967 101.73741,34.268661 C 103.52136,21.69765 95.895811,42.883641 99.182026,30.619319 C 102.46824,18.354998 98.479169,40.515381 103.21972,28.73659 C 107.96028,16.957798 95.486171,35.703248 101.61194,24.581748 C 107.73771,13.460248 98.561224,34.022043 105.98288,23.720012 C 113.40453,13.417979 96.806815,28.633471 105.41613,19.301134 C 114.02544,9.9687971 100.19485,27.737027 109.86628,19.510472 C 119.53771,11.283916 99.780992,22.08518 110.37351,15.084367 C 120.96603,8.0835545 103.28511,22.025595 114.64425,16.352613 C 126.00339,10.679631 104.23585,16.438938 116.19598,12.176511 C 128.1561,7.9140841 107.65241,17.219675 120.03911,14.429959 C 132.4258,11.640244 109.9125,12.022883 122.54515,10.746559 C 135.1778,9.4702348 113.04293,13.598568 125.73732,13.854247 C 138.4317,14.109927 116.48102,9.0936606 129.05203,10.877615 C 141.62304,12.661569 119.14341,11.372721 131.40773,14.658936 C 143.67205,17.945151 123.55969,7.821507 135.33848,12.562063 C 147.11727,17.302618 125.59929,10.671492 136.72079,16.79726 C 147.84229,22.923028 130.7371,8.2803549 141.03914,15.702008 C 151.34117,23.12366 132.03539,11.535634 141.36773,20.144947 C 150.70007,28.75426 137.59615,10.443538 145.8227,20.114968 C 154.04926,29.786399 138.07767,13.914925 145.07848,24.507441 C 152.0793,35.099959 143.7382,14.185339 149.41118,25.544479 C 155.08416,36.903619 143.37497,17.671091 147.6374,29.631212 C 151.89983,41.591334 148.8063,19.288299 151.59601,31.674997 C 154.38573,44.061694 147.61943,22.585836 148.89576,35.218483 C 150.17208,47.851131 152.50591,25.455852 152.25023,38.150237 C 151.99455,50.844622 150.56438,28.373533 148.78043,40.944543 C 146.99647,53.515553 154.62203,32.329562 151.33581,44.593884 z"
       transform="matrix(2.1115916,0,0,2.2711926,294.33986,-17.667333)" />
    <path
       style="fill:#648eff;fill-opacity:1;stroke:none;stroke-width:0.30000001;stroke-linejoin:bevel;stroke-miterlimit:4;stroke-opacity:1"
       d="M 519.46994,16.510068 L 509.6142,11.493158 L 509.6142,23.022508 L 519.46994,23.022508 L 519.46994,16.510068 z"
       id="rect2385"
       sodipodi:nodetypes="ccccc"
       inkscape:export-filename="D:\saboum\web\mes theme free\bgcity.png"
       inkscape:export-xdpi="90"
       inkscape:export-ydpi="90" />
    <path
       style="fill:#648eff;fill-opacity:1;stroke:none;stroke-width:0.30000001;stroke-linejoin:bevel;stroke-miterlimit:4;stroke-opacity:1"
       d="M 497.36959,10.872298 L 495.26348,10.872298 L 493.15736,10.872298 L 493.15736,12.517278 L 493.15736,14.162248 L 493.15736,15.807218 L 493.15736,17.452188 L 493.15736,24.032078 L 495.26348,24.032078 L 497.36959,24.032078 L 497.36959,17.452188 L 497.36959,10.872298 z"
       id="rect2403"
       sodipodi:nodetypes="cccccccccccc"
       inkscape:export-filename="D:\saboum\web\mes theme free\bgcity.png"
       inkscape:export-xdpi="90"
       inkscape:export-ydpi="90" />
    <path
       style="fill:#648eff;fill-opacity:1;stroke:none;stroke-width:0.30000001;stroke-linejoin:bevel;stroke-miterlimit:4;stroke-dasharray:none;stroke-opacity:1"
       d="M 485.94067,14.439585 C 486.21475,14.439585 486.46089,14.523178 486.6539,14.663137 C 486.68857,14.659221 486.72465,14.652483 486.76036,14.652483 C 487.27505,14.652483 487.69715,15.074576 487.69715,15.589277 C 487.69715,15.600477 487.69754,15.610099 487.69715,15.621209 C 487.87092,15.786983 488.00004,16.019762 488.04843,16.291849 C 488.11511,16.666637 488.01306,17.021861 487.80359,17.260574 C 487.78685,17.684064 487.43214,18.03554 486.96262,18.133505 C 486.79309,18.308461 486.55463,18.410267 486.29197,18.410267 C 486.21971,18.410267 486.15725,18.40456 486.08971,18.388989 C 485.97241,18.442229 485.8436,18.474144 485.70646,18.474144 C 485.47863,18.474144 485.27236,18.386484 485.11033,18.250593 C 484.54664,18.209055 484.09903,17.811533 484.09903,17.324453 C 484.09903,17.274613 484.1114,17.223164 484.12033,17.175418 C 484.00845,16.997776 483.93391,16.774057 483.92871,16.536709 C 483.92011,16.144423 484.08725,15.79058 484.34388,15.589277 C 484.41395,15.17462 484.69835,14.847837 485.0784,14.780224 C 485.08192,14.779602 485.08553,14.780801 485.08905,14.780224 C 485.29143,14.571318 485.5965,14.439585 485.94067,14.439585 z"
       id="path3198"
       inkscape:export-filename="D:\saboum\web\mes theme free\bgcity.png"
       inkscape:export-xdpi="90"
       inkscape:export-ydpi="90" />
    <path
       style="fill:#648eff;fill-opacity:1;stroke:none;stroke-width:0.30000001;stroke-linejoin:bevel;stroke-miterlimit:4;stroke-dasharray:none;stroke-opacity:1"
       id="path3219"
       d="M 485.7174,18.120879 C 485.71762,18.236053 485.72807,18.352019 485.71382,18.466921 C 485.697,18.542516 485.6834,18.618369 485.65811,18.692825 C 485.61708,18.756294 485.58671,18.821129 485.56965,18.889833 C 485.56282,18.965459 485.54044,19.039384 485.52333,19.114007 C 485.50645,19.191743 485.50268,19.270418 485.50027,19.348911 C 485.49865,19.426222 485.49902,19.503547 485.49914,19.580871 C 485.49931,19.657969 485.49938,19.735081 485.49943,19.812194 C 485.49947,19.889307 485.49947,19.966404 485.49947,20.043531 C 485.49501,20.114801 485.51811,20.184675 485.54034,20.253698 L 486.27154,20.499879 C 486.24229,20.437442 486.22479,20.368555 486.22034,20.30325 C 486.22034,20.226137 486.22034,20.149009 486.22032,20.071912 C 486.22029,19.994785 486.22023,19.917657 486.22006,19.840529 C 486.21991,19.763538 486.21953,19.686547 486.22047,19.60954 C 486.22198,19.53343 486.22405,19.457136 486.23838,19.381571 C 486.25415,19.306888 486.28146,19.233615 486.2853,19.157899 C 486.29912,19.090074 486.32839,19.026757 486.37007,18.964776 C 486.39728,18.887587 486.41332,18.809564 486.42915,18.730767 C 486.44607,18.61459 486.42922,18.49732 486.43861,18.380748 L 485.7174,18.120879 z"
       inkscape:export-filename="D:\saboum\web\mes theme free\bgcity.png"
       inkscape:export-xdpi="90"
       inkscape:export-ydpi="90" />
    <path
       style="fill:#648eff;fill-opacity:1;stroke:none;stroke-width:0.30000001;stroke-linejoin:bevel;stroke-miterlimit:4;stroke-dasharray:none;stroke-opacity:1"
       d="M 488.32561,15.363979 C 488.54297,15.363979 488.73817,15.435735 488.89126,15.555842 C 488.91874,15.552473 488.94736,15.546706 488.97569,15.546706 C 489.38387,15.546706 489.71862,15.908927 489.71862,16.350629 C 489.71862,16.36025 489.71893,16.368507 489.71862,16.378052 C 489.85643,16.520319 489.95883,16.720074 489.99721,16.953597 C 490.05008,17.275236 489.96916,17.580073 489.80305,17.784928 C 489.78976,18.148363 489.50846,18.449999 489.13609,18.534077 C 489.00164,18.684205 488.81252,18.771593 488.60421,18.771593 C 488.5469,18.771593 488.49738,18.76669 488.4438,18.753334 C 488.35078,18.799017 488.24861,18.826411 488.13986,18.826411 C 487.95918,18.826411 487.79558,18.751179 487.66709,18.634562 C 487.22004,18.598897 486.86505,18.257756 486.86505,17.839761 C 486.86505,17.796979 486.87486,17.752814 486.88195,17.711852 C 486.79323,17.559403 486.73411,17.367419 486.72998,17.163717 C 486.72315,16.827069 486.8557,16.5234 487.05924,16.350629 C 487.1148,15.994781 487.34036,15.714347 487.64176,15.656327 C 487.64454,15.655781 487.64742,15.656828 487.65022,15.656327 C 487.81073,15.477046 488.05265,15.363979 488.32561,15.363979 z"
       id="path3221"
       inkscape:export-filename="D:\saboum\web\mes theme free\bgcity.png"
       inkscape:export-xdpi="90"
       inkscape:export-ydpi="90" />
    <path
       style="fill:#648eff;fill-opacity:1;stroke:none;stroke-width:0.30000001;stroke-linejoin:bevel;stroke-miterlimit:4;stroke-dasharray:none;stroke-opacity:1"
       id="path3223"
       d="M 488.16931,18.317447 C 488.16947,18.482765 488.17698,18.649208 488.16674,18.814147 C 488.15464,18.922645 488.14484,19.031538 488.12665,19.138426 C 488.09716,19.229532 488.07531,19.32258 488.06305,19.421198 C 488.05814,19.529756 488.04203,19.635872 488.02974,19.743004 C 488.0176,19.854582 488.01487,19.967512 488.01315,20.080184 C 488.012,20.19114 488.01226,20.302142 488.01235,20.413129 C 488.01246,20.523812 488.01253,20.634495 488.01254,20.745178 C 488.01258,20.855877 488.01258,20.966545 488.01258,21.077228 C 488.00937,21.179564 488.02597,21.279867 488.04197,21.378941 L 488.56784,21.732314 C 488.54681,21.642679 488.53421,21.543789 488.53101,21.450058 C 488.53101,21.339374 488.53101,21.228677 488.531,21.117978 C 488.53098,21.00728 488.53093,20.89655 488.53081,20.785867 C 488.53072,20.675335 488.53044,20.564819 488.53111,20.454303 C 488.53221,20.345061 488.5337,20.235502 488.544,20.127049 C 488.55534,20.019871 488.57498,19.914682 488.57772,19.806002 C 488.58768,19.708644 488.60873,19.61775 488.63871,19.528785 C 488.65828,19.417981 488.6698,19.305978 488.68119,19.192865 C 488.69336,19.026119 488.68124,18.85778 488.68798,18.690412 L 488.16931,18.317447 z"
       inkscape:export-filename="D:\saboum\web\mes theme free\bgcity.png"
       inkscape:export-xdpi="90"
       inkscape:export-ydpi="90" />
    <path
       style="fill:#648eff;fill-opacity:1;stroke:none;stroke-width:0.30000001;stroke-linejoin:bevel;stroke-miterlimit:4;stroke-dasharray:none;stroke-opacity:1"
       d="M 482.27081,18.838733 C 481.94825,18.838733 481.65857,18.740343 481.43141,18.575631 C 481.39061,18.58023 481.34814,18.588167 481.30612,18.588167 C 480.70036,18.588167 480.20361,18.091405 480.20361,17.485644 C 480.20361,17.472471 480.20315,17.461134 480.20361,17.448067 C 479.9991,17.252956 479.84713,16.979003 479.79017,16.658775 C 479.71171,16.217681 479.8318,15.799625 480.07833,15.518675 C 480.09803,15.02029 480.5155,14.606619 481.06807,14.491337 C 481.26758,14.28542 481.54823,14.1656 481.85738,14.1656 C 481.94241,14.1656 482.01592,14.172309 482.09542,14.190658 C 482.23347,14.127994 482.38504,14.090415 482.54645,14.090415 C 482.81458,14.090415 483.05735,14.193602 483.24805,14.353518 C 483.91146,14.402418 484.43825,14.870253 484.43825,15.443505 C 484.43825,15.502163 484.42371,15.562718 484.41319,15.618901 C 484.54486,15.827975 484.63259,16.091259 484.6387,16.370616 C 484.64884,16.83229 484.45212,17.248722 484.15009,17.485644 C 484.06762,17.973665 483.73291,18.358256 483.28563,18.437828 C 483.2815,18.438556 483.27724,18.437144 483.27311,18.437828 C 483.03489,18.683689 482.67588,18.838733 482.27081,18.838733 z"
       id="path3225"
       inkscape:export-filename="D:\saboum\web\mes theme free\bgcity.png"
       inkscape:export-xdpi="90"
       inkscape:export-ydpi="90" />
    <path
       style="fill:#648eff;fill-opacity:1;stroke:none;stroke-width:0.30000001;stroke-linejoin:bevel;stroke-miterlimit:4;stroke-dasharray:none;stroke-opacity:1"
       id="path3227"
       d="M 481.92473,18.032338 C 481.97388,18.202498 481.99452,18.378365 482.00887,18.554293 C 482.02172,18.751969 482.02244,18.950191 482.02343,19.148201 C 482.02397,19.356105 482.02923,19.563874 482.00874,19.770959 C 481.9974,19.900629 481.95914,20.025487 481.93706,20.153411 C 481.92805,20.200975 481.93626,20.243712 481.95019,20.288771 L 482.63916,20.606616 C 482.62088,20.572878 482.60089,20.548216 482.60499,20.507254 C 482.62435,20.37666 482.66307,20.249752 482.67398,20.117988 C 482.69362,19.908019 482.6897,19.698005 482.68923,19.487247 C 482.6893,19.288008 482.69063,19.088602 482.67949,18.889605 C 482.66688,18.711356 482.64718,18.533608 482.60705,18.359197 L 481.92473,18.032338 z"
       inkscape:export-filename="D:\saboum\web\mes theme free\bgcity.png"
       inkscape:export-xdpi="90"
       inkscape:export-ydpi="90" />
    <path
       style="fill:#648eff;fill-opacity:1;stroke:none;stroke-width:0.30000001;stroke-linejoin:bevel;stroke-miterlimit:4;stroke-dasharray:none;stroke-opacity:1"
       id="path3229"
       d="M 483.70648,17.777506 C 483.74251,18.016705 483.75767,18.263963 483.7682,18.511282 C 483.7776,18.789167 483.77813,19.06784 483.77887,19.34621 C 483.77927,19.638468 483.78311,19.930571 483.76809,20.221691 C 483.75977,20.403978 483.73172,20.57951 483.71552,20.759353 C 483.7089,20.826221 483.71492,20.886306 483.72514,20.949638 L 484.23049,21.396484 C 484.21708,21.349072 484.20241,21.314364 484.20542,21.256783 C 484.21961,21.073206 484.24804,20.89479 484.25602,20.709559 C 484.27043,20.414373 484.26755,20.119126 484.2672,19.822848 C 484.26727,19.542748 484.26824,19.26242 484.26008,18.982653 C 484.25082,18.732087 484.23637,18.482204 484.20694,18.23701 L 483.70648,17.777506 z"
       inkscape:export-filename="D:\saboum\web\mes theme free\bgcity.png"
       inkscape:export-xdpi="90"
       inkscape:export-ydpi="90" />
    <path
       style="fill:#648eff;fill-opacity:1;stroke:none;stroke-width:0.30000001;stroke-linejoin:bevel;stroke-miterlimit:4;stroke-dasharray:none;stroke-opacity:1"
       d="M 483.91923,13.93748 C 484.24054,13.93748 484.52913,14.032699 484.75541,14.192114 C 484.79604,14.187652 484.83835,14.179974 484.88021,14.179974 C 485.48363,14.179974 485.97848,14.660739 485.97848,15.246983 C 485.97848,15.259731 485.97895,15.270704 485.97848,15.283346 C 486.18223,15.472173 486.3336,15.737309 486.39034,16.047217 C 486.4685,16.474091 486.34888,16.8787 486.10329,17.150605 C 486.08367,17.632934 485.66782,18.033279 485.11734,18.144843 C 484.91859,18.344127 484.63904,18.460106 484.33107,18.460106 C 484.24637,18.460106 484.17314,18.453596 484.09395,18.435839 C 483.95642,18.496485 483.80543,18.532849 483.64464,18.532849 C 483.37753,18.532849 483.13569,18.433001 482.94575,18.278215 C 482.28488,18.230893 481.7601,17.778144 481.7601,17.223346 C 481.7601,17.166585 481.77459,17.107974 481.78507,17.053611 C 481.6539,16.851261 481.56653,16.596459 481.56042,16.326103 C 481.55033,15.879303 481.74631,15.476287 482.04715,15.246983 C 482.1293,14.774685 482.46273,14.402479 482.9083,14.325472 C 482.91242,14.324774 482.91668,14.326125 482.92078,14.325472 C 483.15807,14.087532 483.51572,13.93748 483.91923,13.93748 z"
       id="path3231"
       inkscape:export-filename="D:\saboum\web\mes theme free\bgcity.png"
       inkscape:export-xdpi="90"
       inkscape:export-ydpi="90" />
    <path
       style="fill:#648eff;fill-opacity:1;stroke:none;stroke-width:0.30000001;stroke-linejoin:bevel;stroke-miterlimit:4;stroke-opacity:1"
       d="M 496.96648,10.368417 L 496.40561,10.368417 L 495.84473,10.368417 L 495.84473,10.459747 L 495.84473,10.551077 L 495.84473,10.642397 L 495.84473,10.733737 L 495.84473,11.099048 L 496.40561,11.099048 L 496.96648,11.099048 L 496.96648,10.733737 L 496.96648,10.368417 z"
       id="path3245"
       sodipodi:nodetypes="cccccccccccc"
       inkscape:export-filename="D:\saboum\web\mes theme free\bgcity.png"
       inkscape:export-xdpi="90"
       inkscape:export-ydpi="90" />
    <path
       style="fill:#648eff;fill-opacity:1;stroke:none;stroke-width:0.30000001;stroke-linejoin:bevel;stroke-miterlimit:4;stroke-opacity:1"
       d="M 518.6671,14.668238 L 518.10623,14.668238 L 517.54535,14.668238 L 517.54535,15.015708 L 517.54535,15.363178 L 517.54535,15.710638 L 517.54535,16.058118 L 517.54535,17.447988 L 518.10623,17.447988 L 518.6671,17.447988 L 518.6671,16.058118 L 518.6671,14.668238 z"
       id="path3247"
       sodipodi:nodetypes="cccccccccccc"
       inkscape:export-filename="D:\saboum\web\mes theme free\bgcity.png"
       inkscape:export-xdpi="90"
       inkscape:export-ydpi="90" />
    <path
       style="fill:#648eff;fill-opacity:1;stroke:none;stroke-width:0.30000001;stroke-linejoin:bevel;stroke-miterlimit:4;stroke-opacity:1"
       d="M 508.29428,6.1742476 L 503.36641,3.2479576 L 498.43854,6.1742476 L 498.43854,10.377297 L 498.43854,14.580358 L 498.43854,18.783418 L 498.43854,22.986468 L 500.90248,22.986468 L 503.36641,22.986468 L 505.83035,22.986468 L 508.29428,22.986468 L 508.29428,18.783418 L 508.29428,14.580358 L 508.29428,10.377297 L 508.29428,6.1742476 z"
       id="rect2392"
       sodipodi:nodetypes="ccccccccccccccc"
       inkscape:export-filename="D:\saboum\web\mes theme free\bgcity.png"
       inkscape:export-xdpi="90"
       inkscape:export-ydpi="90" />
  </g>
</svg>
